<mxfile host="app.diagrams.net" agent="Mozilla/5.0 (X11; Linux x86_64; rv:134.0) Gecko/20100101 Firefox/134.0" version="26.0.11">
  <diagram name="Page-1" id="BWVk1-L0HybZ6odSlteb">
    <mxGraphModel dx="1562" dy="820" grid="1" gridSize="10" guides="1" tooltips="1" connect="1" arrows="1" fold="1" page="1" pageScale="1" pageWidth="1169" pageHeight="827" math="0" shadow="0">
      <root>
        <mxCell id="0" />
        <mxCell id="1" parent="0" />
        <mxCell id="CGAGVmt4-NLE7OsS4G-o-5" value="" style="shape=image;verticalLabelPosition=bottom;labelBackgroundColor=default;verticalAlign=top;aspect=fixed;imageAspect=0;editableCssRules=.*;image=data:image/svg+xml,PHN2ZyB4bWxucz0iaHR0cDovL3d3dy53My5vcmcvMjAwMC9zdmciIHZpZXdCb3g9IjAgMCAzMiAzMiIgaGVpZ2h0PSI4MDBweCIgd2lkdGg9IjgwMHB4Ij48dGl0bGU+ZmlsZV90eXBlX2VsYXN0aWM8L3RpdGxlPjxwYXRoIHN0eWxlPSJmaWxsOiNmZWQxMGEiIGQ9Ik0xMi43NjEsMTMuODlsNi42NDQsMy4wMjcsNi43LTUuODc0YTcuMDE3LDcuMDE3LDAsMCwwLC4xNDEtMS40NzUsNy40ODQsNy40ODQsMCwwLDAtMTMuNjYtNC4yMzNMMTEuNDY2LDExLjEyWiIvPjxwYXRoIHN0eWxlPSJmaWxsOiMyNGJiYjEiIGQ9Ik01Ljg4NiwyMC45MTlhNy4yNjIsNy4yNjIsMCwwLDAtLjE0MSwxLjUsNy41MTQsNy41MTQsMCwwLDAsMTMuNzI0LDQuMjJsMS4xLTUuNzU5TDE5LjEsMTguMDU5bC02LjY3LTMuMDRaIi8+PHBhdGggc3R5bGU9ImZpbGw6I2VmNTA5OCIgZD0iTTUuODQ4LDkuNDI2LDEwLjQsMTAuNWwxLTUuMTY5QTMuNTk0LDMuNTk0LDAsMCwwLDUuODQ4LDkuNDI2Ii8+PHBhdGggc3R5bGU9ImZpbGw6IzE3YThlMCIgZD0iTTUuNDUsMTAuNTE3YTUuMDE2LDUuMDE2LDAsMCwwLS4yMTgsOS40NTNMMTEuNjIsMTQuMmwtMS4xNjctMi41WiIvPjxwYXRoIHN0eWxlPSJmaWxsOiM5M2M4M2UiIGQ9Ik0yMC42MjQsMjYuNjM5YTMuNTg5LDMuNTg5LDAsMCwwLDUuNTQxLTQuMDkybC00LjU0MS0xLjA2NVoiLz48cGF0aCBzdHlsZT0iZmlsbDojMDc3OWExIiBkPSJNMjEuNTQ3LDIwLjI5bDUsMS4xNjdBNS4wMTYsNS4wMTYsMCwwLDAsMjYuNzY4LDEybC02LjU0MSw1LjczM1oiLz48L3N2Zz4=;" vertex="1" parent="1">
          <mxGeometry x="119" y="39" width="174" height="174" as="geometry" />
        </mxCell>
        <mxCell id="CGAGVmt4-NLE7OsS4G-o-6" value="" style="shape=mxgraph.cisco.servers.fileserver;sketch=0;html=1;pointerEvents=1;dashed=0;fillColor=light-dark(#77767b, #5cb3dc);strokeColor=#ffffff;strokeWidth=2;verticalLabelPosition=bottom;verticalAlign=top;align=center;outlineConnect=0;" vertex="1" parent="1">
          <mxGeometry x="93.92" y="630" width="90.16" height="130" as="geometry" />
        </mxCell>
        <mxCell id="CGAGVmt4-NLE7OsS4G-o-7" value="" style="shape=image;verticalLabelPosition=bottom;labelBackgroundColor=default;verticalAlign=top;aspect=fixed;imageAspect=0;editableCssRules=.*;image=data:image/svg+xml,PHN2ZyB2aWV3Qm94PSIwIDAgMTkyIDE5MiIgeG1sbnM9Imh0dHA6Ly93d3cudzMub3JnLzIwMDAvc3ZnIiBpZD0iU2VjdXJpdHlfTmV0d29ya2luZyI+PGRlZnM+PHN0eWxlPi5jbHMtMXtmaWxsOiNmMDAwMDA7fS5jbHMtMntmaWxsOiM0NjQ2NDY7fS5jbHMtM3tmaWxsOiMyY2NjZDM7fTwvc3R5bGU+PC9kZWZzPjxsaW5lIHkyPSIxMzEuNjkiIHgyPSIxMjkuMzUiIHkxPSIxNzMuOTQiIHgxPSIxNzIuNTgiIGNsYXNzPSJjbHMtMSIvPjxwYXRoIGQ9Im0xNzIuNTgsMTc1Ljk0Yy0uNSwwLTEuMDEtLjE5LTEuNC0uNTdsLTQzLjIzLTQyLjI0Yy0uNzktLjc3LS44LTIuMDQtLjAzLTIuODMuNzctLjc5LDIuMDQtLjgsMi44My0uMDNsNDMuMjMsNDIuMjRjLjc5Ljc3LjgsMi4wNC4wMywyLjgzLS4zOS40LS45MS42LTEuNDMuNloiIGNsYXNzPSJjbHMtMiIvPjxwYXRoIGQ9Im05NS43OCwxNDcuMjJjLTcuMjQsMC0xNC4yMy0xLjUtMjAuNzgtNC40Ni02LjA2LTIuNzYtMTEuNDQtNi42MS0xNS45OC0xMS40NS04LjgxLTkuMzctMTMuNjYtMjEuNjItMTMuNjYtMzQuNSwwLTI3LjgsMjIuNjItNTAuNDIsNTAuNDItNTAuNDJzNTAuNDEsMjIuNjIsNTAuNDEsNTAuNDJjMCwxMi44Ny00Ljg1LDI1LjEzLTEzLjY1LDM0LjUtNC41Niw0Ljg1LTkuOTQsOC43MS0xNS45OSwxMS40NS02LjU1LDIuOTYtMTMuNTQsNC40Ni0yMC43Nyw0LjQ2Wm0wLTk2LjgzYy0yNS42LDAtNDYuNDIsMjAuODItNDYuNDIsNDYuNDIsMCwxMS44Niw0LjQ3LDIzLjE0LDEyLjU4LDMxLjc2LDQuMTksNC40Niw5LjE0LDguMDEsMTQuNzIsMTAuNTUsNi4wMiwyLjcyLDEyLjQ2LDQuMSwxOS4xMyw0LjFzMTMuMDktMS4zOCwxOS4xMi00LjFjNS41Ny0yLjUzLDEwLjUzLTYuMDcsMTQuNzItMTAuNTQsOC4xMS04LjYzLDEyLjU3LTE5LjkxLDEyLjU3LTMxLjc2LDAtMjUuNi0yMC44Mi00Ni40Mi00Ni40MS00Ni40MloiIGNsYXNzPSJjbHMtMiIvPjxsaW5lIHkyPSIyNS44IiB4Mj0iMjQuNzMiIHkxPSI2Mi41OSIgeDE9IjYxLjUyIiBjbGFzcz0iY2xzLTMiLz48cGF0aCBkPSJtNjEuNTIsNjQuNTljLS41MSwwLTEuMDItLjItMS40MS0uNTlMMjcuMDUsMzAuOTZjLS43OC0uNzgtLjc4LTIuMDUsMC0yLjgzLjc4LS43OCwyLjA1LS43OCwyLjgzLDBsMzMuMDUsMzMuMDVjLjc4Ljc4Ljc4LDIuMDUsMCwyLjgzLS4zOS4zOS0uOS41OS0xLjQxLjU5WiIgY2xhc3M9ImNscy0yIi8+PHBhdGggZD0ibTMyLjYsMjUuOGMtMi4xNy0yLjE3LTUuNy0yLjE3LTcuODcsMHMtMi4xNyw1LjcsMCw3Ljg3YzIuMTcsMi4xNyw1LjcsMi4xNyw3Ljg3LDAsMi4xNy0yLjE3LDIuMTctNS43LDAtNy44N1oiIGNsYXNzPSJjbHMtMiIvPjxsaW5lIHkyPSIyOS45OCIgeDI9IjE2Mi42NSIgeTE9IjYyLjU5IiB4MT0iMTMwLjAzIiBjbGFzcz0iY2xzLTMiLz48cGF0aCBkPSJtMTMwLjAzLDY0LjU5Yy0uNTEsMC0xLjAyLS4yLTEuNDEtLjU5LS43OC0uNzgtLjc4LTIuMDUsMC0yLjgzbDI4Ljg4LTI4Ljg4Yy43OC0uNzgsMi4wNS0uNzgsMi44MywwLC43OC43OC43OCwyLjA1LDAsMi44M2wtMjguODgsMjguODhjLS4zOS4zOS0uOS41OS0xLjQxLjU5WiIgY2xhc3M9ImNscy0yIi8+PHBhdGggZD0ibTE2Mi42NSwzNy44NWMyLjE3LTIuMTcsMi4xNy01LjcsMC03Ljg3LTIuMTctMi4xNy01LjctMi4xNy03Ljg3LDBzLTIuMTcsNS43LDAsNy44N2MyLjE3LDIuMTcsNS43LDIuMTcsNy44NywwWiIgY2xhc3M9ImNscy0yIi8+PGxpbmUgeTI9IjE1OC42MiIgeDI9IjI0LjQiIHkxPSIxMjUuOTIiIHgxPSI1Ny4xIiBjbGFzcz0iY2xzLTMiLz48cGF0aCBkPSJtMjguMTMsMTU2Ljg4Yy0uNTEsMC0xLjAyLS4yLTEuNDEtLjU5LS43OC0uNzgtLjc4LTIuMDUsMC0yLjgzbDI4Ljk2LTI4Ljk2Yy43OC0uNzgsMi4wNS0uNzgsMi44MywwLC43OC43OC43OCwyLjA1LDAsMi44M2wtMjguOTYsMjguOTZjLS4zOS4zOS0uOS41OS0xLjQxLjU5WiIgY2xhc3M9ImNscy0yIi8+PHBhdGggZD0ibTI0LjM5LDE1MC43NWMtMi4xNywyLjE3LTIuMTcsNS43LDAsNy44NywyLjE3LDIuMTcsNS43LDIuMTcsNy44NywwczIuMTctNS43LDAtNy44N2MtMi4xNy0yLjE3LTUuNy0yLjE3LTcuODcsMFoiIGNsYXNzPSJjbHMtMiIvPjxwYXRoIGQ9Im05NS43OCwxNjQuNTJjLTEuMSwwLTItLjktMi0ydi0xNy4zYzAtMS4xLjktMiwyLTJzMiwuOSwyLDJ2MTcuM2MwLDEuMS0uOSwyLTIsMloiIGNsYXNzPSJjbHMtMiIvPjxjaXJjbGUgcj0iNS41NiIgY3k9IjE2Mi4yNSIgY3g9Ijk1Ljc4IiBjbGFzcz0iY2xzLTIiLz48cGF0aCBkPSJtOTUuNzgsNTAuMzljLTEuMSwwLTItLjktMi0ydi0yNy4xMWMwLTEuMS45LTIsMi0yczIsLjksMiwydjI3LjExYzAsMS4xLS45LDItMiwyWiIgY2xhc3M9ImNscy0yIi8+PHBhdGggZD0ibTEwMS4zNCwyMS41NmMwLTMuMDctMi40OS01LjU2LTUuNTYtNS41NnMtNS41NiwyLjQ5LTUuNTYsNS41NiwyLjQ5LDUuNTYsNS41Niw1LjU2LDUuNTYtMi40OSw1LjU2LTUuNTZaIiBjbGFzcz0iY2xzLTIiLz48cGF0aCBkPSJtNDcuMzYsOTRoLTI2LjA3Yy0xLjEsMC0yLS45LTItMnMuOS0yLDItMmgyNi4wN2MxLjEsMCwyLC45LDIsMnMtLjksMi0yLDJaIiBjbGFzcz0iY2xzLTIiLz48Y2lyY2xlIHI9IjUuNTYiIGN5PSI5MiIgY3g9IjIxLjU2IiBjbGFzcz0iY2xzLTIiLz48cGF0aCBkPSJtMTc4LjcyLDEwNy44NmgtMzUuMzhjLTEuMSwwLTItLjktMi0ycy45LTIsMi0yaDM1LjM4YzEuMSwwLDIsLjksMiwycy0uOSwyLTIsMloiIGNsYXNzPSJjbHMtMiIvPjxjaXJjbGUgcj0iNS41NiIgY3k9IjEwNS44NiIgY3g9IjE3OC40NSIgY2xhc3M9ImNscy0yIi8+PHBhdGggZD0ibTg3LjY5LDEyNS44N2MtLjA0LTQuNDEsMy42LTguMDEsOC4wOC04LjAxczguMDQsMy42LDguMDgsOC4wMWMtLjA0LDQuNDgtMy43NSw4LjA4LTguMDgsOC4wOHMtOC4xMi0zLjYtOC4wOC04LjA4Wm04LjA4LTE0Ljg0aDBjLTMuMjksMC01Ljk3LTIuNjMtNi4wNS01LjkxbC0uODktNDAuMDljLS4wOS0zLjksMy4wNS03LjEsNi45NS03LjFoMGMzLjksMCw3LjA0LDMuMjEsNi45NSw3LjExbC0uOTEsNDAuMDljLS4wNywzLjI5LTIuNzYsNS45MS02LjA1LDUuOTFaIiBjbGFzcz0iY2xzLTMiLz48cGF0aCBkPSJtOTUuNzgsMTM1Ljk1Yy0yLjczLDAtNS4yOC0xLjA2LTcuMTktMi45OC0xLjg4LTEuOS0yLjkxLTQuNDItMi44OS03LjEtLjAyLTIuNjQsMS01LjEzLDIuODgtNy4wMSwxLjkxLTEuOTMsNC40Ny0yLjk5LDcuMjEtMi45OSw1LjUxLDAsMTAuMDMsNC40OCwxMC4wOCw5Ljk5LS4wNSw1LjU4LTQuNTcsMTAuMS0xMC4wOCwxMC4xWm0wLTE2LjA5Yy0xLjY2LDAtMy4yMS42NC00LjM3LDEuODEtMS4xMiwxLjEzLTEuNzMsMi42MS0xLjcyLDQuMTh2LjAzYy0uMDEsMS42MS42LDMuMTIsMS43Myw0LjI2LDEuMTUsMS4xNiwyLjcsMS44LDQuMzUsMS44LDMuMjcsMCw2LjA1LTIuNzksNi4wOC02LjEtLjAzLTMuMjMtMi44MS01Ljk5LTYuMDgtNS45OVptMC02LjgzYy00LjM0LDAtNy45NS0zLjUzLTguMDUtNy44N2wtLjg5LTQwLjA5Yy0uMDUtMi40My44NS00LjcyLDIuNTUtNi40NiwxLjctMS43NCwzLjk3LTIuNjksNi40LTIuNjlzNC43Ljk2LDYuNCwyLjY5YzEuNywxLjc0LDIuNiw0LjAzLDIuNTUsNi40NmwtLjkxLDQwLjA5Yy0uMSw0LjM0LTMuNzEsNy44Ni04LjA1LDcuODZabS4wMS01My4xMWMtMS4zNCwwLTIuNi41My0zLjU0LDEuNDktLjk0Ljk2LTEuNDQsMi4yMy0xLjQxLDMuNTdsLjg5LDQwLjA5Yy4wNSwyLjE4LDEuODYsMy45Niw0LjA1LDMuOTZzNC0xLjc3LDQuMDUtMy45NmwuOTEtNDAuMDljLjAzLTEuMzQtLjQ3LTIuNjEtMS40MS0zLjU3cy0yLjItMS40OS0zLjU0LTEuNDlaIiBjbGFzcz0iY2xzLTIiLz48L3N2Zz4=;" vertex="1" parent="1">
          <mxGeometry x="830" y="318" width="192" height="192" as="geometry" />
        </mxCell>
        <mxCell id="CGAGVmt4-NLE7OsS4G-o-8" value="" style="shape=image;verticalLabelPosition=bottom;labelBackgroundColor=default;verticalAlign=top;aspect=fixed;imageAspect=0;editableCssRules=.*;image=data:image/svg+xml,PHN2ZyB2aWV3Qm94PSIwIDAgMTkyIDE5MiIgeG1sbnM9Imh0dHA6Ly93d3cudzMub3JnLzIwMDAvc3ZnIiBpZD0iU2VjdXJpdHlfTmV0d29ya2luZyI+PGRlZnM+PHN0eWxlPi5jbHMtMXtmaWxsOiNmMDAwMDA7fS5jbHMtMntmaWxsOiM0NjQ2NDY7fS5jbHMtM3tmaWxsOiMyY2NjZDM7fTwvc3R5bGU+PC9kZWZzPjxsaW5lIHkyPSIxMzEuNjkiIHgyPSIxMjkuMzUiIHkxPSIxNzMuOTQiIHgxPSIxNzIuNTgiIGNsYXNzPSJjbHMtMSIvPjxwYXRoIGQ9Im0xNzIuNTgsMTc1Ljk0Yy0uNSwwLTEuMDEtLjE5LTEuNC0uNTdsLTQzLjIzLTQyLjI0Yy0uNzktLjc3LS44LTIuMDQtLjAzLTIuODMuNzctLjc5LDIuMDQtLjgsMi44My0uMDNsNDMuMjMsNDIuMjRjLjc5Ljc3LjgsMi4wNC4wMywyLjgzLS4zOS40LS45MS42LTEuNDMuNloiIGNsYXNzPSJjbHMtMiIvPjxwYXRoIGQ9Im05NS43OCwxNDcuMjJjLTcuMjQsMC0xNC4yMy0xLjUtMjAuNzgtNC40Ni02LjA2LTIuNzYtMTEuNDQtNi42MS0xNS45OC0xMS40NS04LjgxLTkuMzctMTMuNjYtMjEuNjItMTMuNjYtMzQuNSwwLTI3LjgsMjIuNjItNTAuNDIsNTAuNDItNTAuNDJzNTAuNDEsMjIuNjIsNTAuNDEsNTAuNDJjMCwxMi44Ny00Ljg1LDI1LjEzLTEzLjY1LDM0LjUtNC41Niw0Ljg1LTkuOTQsOC43MS0xNS45OSwxMS40NS02LjU1LDIuOTYtMTMuNTQsNC40Ni0yMC43Nyw0LjQ2Wm0wLTk2LjgzYy0yNS42LDAtNDYuNDIsMjAuODItNDYuNDIsNDYuNDIsMCwxMS44Niw0LjQ3LDIzLjE0LDEyLjU4LDMxLjc2LDQuMTksNC40Niw5LjE0LDguMDEsMTQuNzIsMTAuNTUsNi4wMiwyLjcyLDEyLjQ2LDQuMSwxOS4xMyw0LjFzMTMuMDktMS4zOCwxOS4xMi00LjFjNS41Ny0yLjUzLDEwLjUzLTYuMDcsMTQuNzItMTAuNTQsOC4xMS04LjYzLDEyLjU3LTE5LjkxLDEyLjU3LTMxLjc2LDAtMjUuNi0yMC44Mi00Ni40Mi00Ni40MS00Ni40MloiIGNsYXNzPSJjbHMtMiIvPjxsaW5lIHkyPSIyNS44IiB4Mj0iMjQuNzMiIHkxPSI2Mi41OSIgeDE9IjYxLjUyIiBjbGFzcz0iY2xzLTMiLz48cGF0aCBkPSJtNjEuNTIsNjQuNTljLS41MSwwLTEuMDItLjItMS40MS0uNTlMMjcuMDUsMzAuOTZjLS43OC0uNzgtLjc4LTIuMDUsMC0yLjgzLjc4LS43OCwyLjA1LS43OCwyLjgzLDBsMzMuMDUsMzMuMDVjLjc4Ljc4Ljc4LDIuMDUsMCwyLjgzLS4zOS4zOS0uOS41OS0xLjQxLjU5WiIgY2xhc3M9ImNscy0yIi8+PHBhdGggZD0ibTMyLjYsMjUuOGMtMi4xNy0yLjE3LTUuNy0yLjE3LTcuODcsMHMtMi4xNyw1LjcsMCw3Ljg3YzIuMTcsMi4xNyw1LjcsMi4xNyw3Ljg3LDAsMi4xNy0yLjE3LDIuMTctNS43LDAtNy44N1oiIGNsYXNzPSJjbHMtMiIvPjxsaW5lIHkyPSIyOS45OCIgeDI9IjE2Mi42NSIgeTE9IjYyLjU5IiB4MT0iMTMwLjAzIiBjbGFzcz0iY2xzLTMiLz48cGF0aCBkPSJtMTMwLjAzLDY0LjU5Yy0uNTEsMC0xLjAyLS4yLTEuNDEtLjU5LS43OC0uNzgtLjc4LTIuMDUsMC0yLjgzbDI4Ljg4LTI4Ljg4Yy43OC0uNzgsMi4wNS0uNzgsMi44MywwLC43OC43OC43OCwyLjA1LDAsMi44M2wtMjguODgsMjguODhjLS4zOS4zOS0uOS41OS0xLjQxLjU5WiIgY2xhc3M9ImNscy0yIi8+PHBhdGggZD0ibTE2Mi42NSwzNy44NWMyLjE3LTIuMTcsMi4xNy01LjcsMC03Ljg3LTIuMTctMi4xNy01LjctMi4xNy03Ljg3LDBzLTIuMTcsNS43LDAsNy44N2MyLjE3LDIuMTcsNS43LDIuMTcsNy44NywwWiIgY2xhc3M9ImNscy0yIi8+PGxpbmUgeTI9IjE1OC42MiIgeDI9IjI0LjQiIHkxPSIxMjUuOTIiIHgxPSI1Ny4xIiBjbGFzcz0iY2xzLTMiLz48cGF0aCBkPSJtMjguMTMsMTU2Ljg4Yy0uNTEsMC0xLjAyLS4yLTEuNDEtLjU5LS43OC0uNzgtLjc4LTIuMDUsMC0yLjgzbDI4Ljk2LTI4Ljk2Yy43OC0uNzgsMi4wNS0uNzgsMi44MywwLC43OC43OC43OCwyLjA1LDAsMi44M2wtMjguOTYsMjguOTZjLS4zOS4zOS0uOS41OS0xLjQxLjU5WiIgY2xhc3M9ImNscy0yIi8+PHBhdGggZD0ibTI0LjM5LDE1MC43NWMtMi4xNywyLjE3LTIuMTcsNS43LDAsNy44NywyLjE3LDIuMTcsNS43LDIuMTcsNy44NywwczIuMTctNS43LDAtNy44N2MtMi4xNy0yLjE3LTUuNy0yLjE3LTcuODcsMFoiIGNsYXNzPSJjbHMtMiIvPjxwYXRoIGQ9Im05NS43OCwxNjQuNTJjLTEuMSwwLTItLjktMi0ydi0xNy4zYzAtMS4xLjktMiwyLTJzMiwuOSwyLDJ2MTcuM2MwLDEuMS0uOSwyLTIsMloiIGNsYXNzPSJjbHMtMiIvPjxjaXJjbGUgcj0iNS41NiIgY3k9IjE2Mi4yNSIgY3g9Ijk1Ljc4IiBjbGFzcz0iY2xzLTIiLz48cGF0aCBkPSJtOTUuNzgsNTAuMzljLTEuMSwwLTItLjktMi0ydi0yNy4xMWMwLTEuMS45LTIsMi0yczIsLjksMiwydjI3LjExYzAsMS4xLS45LDItMiwyWiIgY2xhc3M9ImNscy0yIi8+PHBhdGggZD0ibTEwMS4zNCwyMS41NmMwLTMuMDctMi40OS01LjU2LTUuNTYtNS41NnMtNS41NiwyLjQ5LTUuNTYsNS41NiwyLjQ5LDUuNTYsNS41Niw1LjU2LDUuNTYtMi40OSw1LjU2LTUuNTZaIiBjbGFzcz0iY2xzLTIiLz48cGF0aCBkPSJtNDcuMzYsOTRoLTI2LjA3Yy0xLjEsMC0yLS45LTItMnMuOS0yLDItMmgyNi4wN2MxLjEsMCwyLC45LDIsMnMtLjksMi0yLDJaIiBjbGFzcz0iY2xzLTIiLz48Y2lyY2xlIHI9IjUuNTYiIGN5PSI5MiIgY3g9IjIxLjU2IiBjbGFzcz0iY2xzLTIiLz48cGF0aCBkPSJtMTc4LjcyLDEwNy44NmgtMzUuMzhjLTEuMSwwLTItLjktMi0ycy45LTIsMi0yaDM1LjM4YzEuMSwwLDIsLjksMiwycy0uOSwyLTIsMloiIGNsYXNzPSJjbHMtMiIvPjxjaXJjbGUgcj0iNS41NiIgY3k9IjEwNS44NiIgY3g9IjE3OC40NSIgY2xhc3M9ImNscy0yIi8+PHBhdGggZD0ibTg3LjY5LDEyNS44N2MtLjA0LTQuNDEsMy42LTguMDEsOC4wOC04LjAxczguMDQsMy42LDguMDgsOC4wMWMtLjA0LDQuNDgtMy43NSw4LjA4LTguMDgsOC4wOHMtOC4xMi0zLjYtOC4wOC04LjA4Wm04LjA4LTE0Ljg0aDBjLTMuMjksMC01Ljk3LTIuNjMtNi4wNS01LjkxbC0uODktNDAuMDljLS4wOS0zLjksMy4wNS03LjEsNi45NS03LjFoMGMzLjksMCw3LjA0LDMuMjEsNi45NSw3LjExbC0uOTEsNDAuMDljLS4wNywzLjI5LTIuNzYsNS45MS02LjA1LDUuOTFaIiBjbGFzcz0iY2xzLTMiLz48cGF0aCBkPSJtOTUuNzgsMTM1Ljk1Yy0yLjczLDAtNS4yOC0xLjA2LTcuMTktMi45OC0xLjg4LTEuOS0yLjkxLTQuNDItMi44OS03LjEtLjAyLTIuNjQsMS01LjEzLDIuODgtNy4wMSwxLjkxLTEuOTMsNC40Ny0yLjk5LDcuMjEtMi45OSw1LjUxLDAsMTAuMDMsNC40OCwxMC4wOCw5Ljk5LS4wNSw1LjU4LTQuNTcsMTAuMS0xMC4wOCwxMC4xWm0wLTE2LjA5Yy0xLjY2LDAtMy4yMS42NC00LjM3LDEuODEtMS4xMiwxLjEzLTEuNzMsMi42MS0xLjcyLDQuMTh2LjAzYy0uMDEsMS42MS42LDMuMTIsMS43Myw0LjI2LDEuMTUsMS4xNiwyLjcsMS44LDQuMzUsMS44LDMuMjcsMCw2LjA1LTIuNzksNi4wOC02LjEtLjAzLTMuMjMtMi44MS01Ljk5LTYuMDgtNS45OVptMC02LjgzYy00LjM0LDAtNy45NS0zLjUzLTguMDUtNy44N2wtLjg5LTQwLjA5Yy0uMDUtMi40My44NS00LjcyLDIuNTUtNi40NiwxLjctMS43NCwzLjk3LTIuNjksNi40LTIuNjlzNC43Ljk2LDYuNCwyLjY5YzEuNywxLjc0LDIuNiw0LjAzLDIuNTUsNi40NmwtLjkxLDQwLjA5Yy0uMSw0LjM0LTMuNzEsNy44Ni04LjA1LDcuODZabS4wMS01My4xMWMtMS4zNCwwLTIuNi41My0zLjU0LDEuNDktLjk0Ljk2LTEuNDQsMi4yMy0xLjQxLDMuNTdsLjg5LDQwLjA5Yy4wNSwyLjE4LDEuODYsMy45Niw0LjA1LDMuOTZzNC0xLjc3LDQuMDUtMy45NmwuOTEtNDAuMDljLjAzLTEuMzQtLjQ3LTIuNjEtMS40MS0zLjU3cy0yLjItMS40OS0zLjU0LTEuNDlaIiBjbGFzcz0iY2xzLTIiLz48L3N2Zz4=;" vertex="1" parent="1">
          <mxGeometry x="489" y="270" width="192" height="192" as="geometry" />
        </mxCell>
        <mxCell id="CGAGVmt4-NLE7OsS4G-o-9" value="" style="shape=image;verticalLabelPosition=bottom;labelBackgroundColor=default;verticalAlign=top;aspect=fixed;imageAspect=0;editableCssRules=.*;image=data:image/svg+xml,PHN2ZyB2aWV3Qm94PSIwIDAgMTkyIDE5MiIgeG1sbnM9Imh0dHA6Ly93d3cudzMub3JnLzIwMDAvc3ZnIiBpZD0iU2VjdXJpdHlfTmV0d29ya2luZyI+PGRlZnM+PHN0eWxlPi5jbHMtMXtmaWxsOiNmMDAwMDA7fS5jbHMtMntmaWxsOiM0NjQ2NDY7fS5jbHMtM3tmaWxsOiMyY2NjZDM7fTwvc3R5bGU+PC9kZWZzPjxsaW5lIHkyPSIxMzEuNjkiIHgyPSIxMjkuMzUiIHkxPSIxNzMuOTQiIHgxPSIxNzIuNTgiIGNsYXNzPSJjbHMtMSIvPjxwYXRoIGQ9Im0xNzIuNTgsMTc1Ljk0Yy0uNSwwLTEuMDEtLjE5LTEuNC0uNTdsLTQzLjIzLTQyLjI0Yy0uNzktLjc3LS44LTIuMDQtLjAzLTIuODMuNzctLjc5LDIuMDQtLjgsMi44My0uMDNsNDMuMjMsNDIuMjRjLjc5Ljc3LjgsMi4wNC4wMywyLjgzLS4zOS40LS45MS42LTEuNDMuNloiIGNsYXNzPSJjbHMtMiIvPjxwYXRoIGQ9Im05NS43OCwxNDcuMjJjLTcuMjQsMC0xNC4yMy0xLjUtMjAuNzgtNC40Ni02LjA2LTIuNzYtMTEuNDQtNi42MS0xNS45OC0xMS40NS04LjgxLTkuMzctMTMuNjYtMjEuNjItMTMuNjYtMzQuNSwwLTI3LjgsMjIuNjItNTAuNDIsNTAuNDItNTAuNDJzNTAuNDEsMjIuNjIsNTAuNDEsNTAuNDJjMCwxMi44Ny00Ljg1LDI1LjEzLTEzLjY1LDM0LjUtNC41Niw0Ljg1LTkuOTQsOC43MS0xNS45OSwxMS40NS02LjU1LDIuOTYtMTMuNTQsNC40Ni0yMC43Nyw0LjQ2Wm0wLTk2LjgzYy0yNS42LDAtNDYuNDIsMjAuODItNDYuNDIsNDYuNDIsMCwxMS44Niw0LjQ3LDIzLjE0LDEyLjU4LDMxLjc2LDQuMTksNC40Niw5LjE0LDguMDEsMTQuNzIsMTAuNTUsNi4wMiwyLjcyLDEyLjQ2LDQuMSwxOS4xMyw0LjFzMTMuMDktMS4zOCwxOS4xMi00LjFjNS41Ny0yLjUzLDEwLjUzLTYuMDcsMTQuNzItMTAuNTQsOC4xMS04LjYzLDEyLjU3LTE5LjkxLDEyLjU3LTMxLjc2LDAtMjUuNi0yMC44Mi00Ni40Mi00Ni40MS00Ni40MloiIGNsYXNzPSJjbHMtMiIvPjxsaW5lIHkyPSIyNS44IiB4Mj0iMjQuNzMiIHkxPSI2Mi41OSIgeDE9IjYxLjUyIiBjbGFzcz0iY2xzLTMiLz48cGF0aCBkPSJtNjEuNTIsNjQuNTljLS41MSwwLTEuMDItLjItMS40MS0uNTlMMjcuMDUsMzAuOTZjLS43OC0uNzgtLjc4LTIuMDUsMC0yLjgzLjc4LS43OCwyLjA1LS43OCwyLjgzLDBsMzMuMDUsMzMuMDVjLjc4Ljc4Ljc4LDIuMDUsMCwyLjgzLS4zOS4zOS0uOS41OS0xLjQxLjU5WiIgY2xhc3M9ImNscy0yIi8+PHBhdGggZD0ibTMyLjYsMjUuOGMtMi4xNy0yLjE3LTUuNy0yLjE3LTcuODcsMHMtMi4xNyw1LjcsMCw3Ljg3YzIuMTcsMi4xNyw1LjcsMi4xNyw3Ljg3LDAsMi4xNy0yLjE3LDIuMTctNS43LDAtNy44N1oiIGNsYXNzPSJjbHMtMiIvPjxsaW5lIHkyPSIyOS45OCIgeDI9IjE2Mi42NSIgeTE9IjYyLjU5IiB4MT0iMTMwLjAzIiBjbGFzcz0iY2xzLTMiLz48cGF0aCBkPSJtMTMwLjAzLDY0LjU5Yy0uNTEsMC0xLjAyLS4yLTEuNDEtLjU5LS43OC0uNzgtLjc4LTIuMDUsMC0yLjgzbDI4Ljg4LTI4Ljg4Yy43OC0uNzgsMi4wNS0uNzgsMi44MywwLC43OC43OC43OCwyLjA1LDAsMi44M2wtMjguODgsMjguODhjLS4zOS4zOS0uOS41OS0xLjQxLjU5WiIgY2xhc3M9ImNscy0yIi8+PHBhdGggZD0ibTE2Mi42NSwzNy44NWMyLjE3LTIuMTcsMi4xNy01LjcsMC03Ljg3LTIuMTctMi4xNy01LjctMi4xNy03Ljg3LDBzLTIuMTcsNS43LDAsNy44N2MyLjE3LDIuMTcsNS43LDIuMTcsNy44NywwWiIgY2xhc3M9ImNscy0yIi8+PGxpbmUgeTI9IjE1OC42MiIgeDI9IjI0LjQiIHkxPSIxMjUuOTIiIHgxPSI1Ny4xIiBjbGFzcz0iY2xzLTMiLz48cGF0aCBkPSJtMjguMTMsMTU2Ljg4Yy0uNTEsMC0xLjAyLS4yLTEuNDEtLjU5LS43OC0uNzgtLjc4LTIuMDUsMC0yLjgzbDI4Ljk2LTI4Ljk2Yy43OC0uNzgsMi4wNS0uNzgsMi44MywwLC43OC43OC43OCwyLjA1LDAsMi44M2wtMjguOTYsMjguOTZjLS4zOS4zOS0uOS41OS0xLjQxLjU5WiIgY2xhc3M9ImNscy0yIi8+PHBhdGggZD0ibTI0LjM5LDE1MC43NWMtMi4xNywyLjE3LTIuMTcsNS43LDAsNy44NywyLjE3LDIuMTcsNS43LDIuMTcsNy44NywwczIuMTctNS43LDAtNy44N2MtMi4xNy0yLjE3LTUuNy0yLjE3LTcuODcsMFoiIGNsYXNzPSJjbHMtMiIvPjxwYXRoIGQ9Im05NS43OCwxNjQuNTJjLTEuMSwwLTItLjktMi0ydi0xNy4zYzAtMS4xLjktMiwyLTJzMiwuOSwyLDJ2MTcuM2MwLDEuMS0uOSwyLTIsMloiIGNsYXNzPSJjbHMtMiIvPjxjaXJjbGUgcj0iNS41NiIgY3k9IjE2Mi4yNSIgY3g9Ijk1Ljc4IiBjbGFzcz0iY2xzLTIiLz48cGF0aCBkPSJtOTUuNzgsNTAuMzljLTEuMSwwLTItLjktMi0ydi0yNy4xMWMwLTEuMS45LTIsMi0yczIsLjksMiwydjI3LjExYzAsMS4xLS45LDItMiwyWiIgY2xhc3M9ImNscy0yIi8+PHBhdGggZD0ibTEwMS4zNCwyMS41NmMwLTMuMDctMi40OS01LjU2LTUuNTYtNS41NnMtNS41NiwyLjQ5LTUuNTYsNS41NiwyLjQ5LDUuNTYsNS41Niw1LjU2LDUuNTYtMi40OSw1LjU2LTUuNTZaIiBjbGFzcz0iY2xzLTIiLz48cGF0aCBkPSJtNDcuMzYsOTRoLTI2LjA3Yy0xLjEsMC0yLS45LTItMnMuOS0yLDItMmgyNi4wN2MxLjEsMCwyLC45LDIsMnMtLjksMi0yLDJaIiBjbGFzcz0iY2xzLTIiLz48Y2lyY2xlIHI9IjUuNTYiIGN5PSI5MiIgY3g9IjIxLjU2IiBjbGFzcz0iY2xzLTIiLz48cGF0aCBkPSJtMTc4LjcyLDEwNy44NmgtMzUuMzhjLTEuMSwwLTItLjktMi0ycy45LTIsMi0yaDM1LjM4YzEuMSwwLDIsLjksMiwycy0uOSwyLTIsMloiIGNsYXNzPSJjbHMtMiIvPjxjaXJjbGUgcj0iNS41NiIgY3k9IjEwNS44NiIgY3g9IjE3OC40NSIgY2xhc3M9ImNscy0yIi8+PHBhdGggZD0ibTg3LjY5LDEyNS44N2MtLjA0LTQuNDEsMy42LTguMDEsOC4wOC04LjAxczguMDQsMy42LDguMDgsOC4wMWMtLjA0LDQuNDgtMy43NSw4LjA4LTguMDgsOC4wOHMtOC4xMi0zLjYtOC4wOC04LjA4Wm04LjA4LTE0Ljg0aDBjLTMuMjksMC01Ljk3LTIuNjMtNi4wNS01LjkxbC0uODktNDAuMDljLS4wOS0zLjksMy4wNS03LjEsNi45NS03LjFoMGMzLjksMCw3LjA0LDMuMjEsNi45NSw3LjExbC0uOTEsNDAuMDljLS4wNywzLjI5LTIuNzYsNS45MS02LjA1LDUuOTFaIiBjbGFzcz0iY2xzLTMiLz48cGF0aCBkPSJtOTUuNzgsMTM1Ljk1Yy0yLjczLDAtNS4yOC0xLjA2LTcuMTktMi45OC0xLjg4LTEuOS0yLjkxLTQuNDItMi44OS03LjEtLjAyLTIuNjQsMS01LjEzLDIuODgtNy4wMSwxLjkxLTEuOTMsNC40Ny0yLjk5LDcuMjEtMi45OSw1LjUxLDAsMTAuMDMsNC40OCwxMC4wOCw5Ljk5LS4wNSw1LjU4LTQuNTcsMTAuMS0xMC4wOCwxMC4xWm0wLTE2LjA5Yy0xLjY2LDAtMy4yMS42NC00LjM3LDEuODEtMS4xMiwxLjEzLTEuNzMsMi42MS0xLjcyLDQuMTh2LjAzYy0uMDEsMS42MS42LDMuMTIsMS43Myw0LjI2LDEuMTUsMS4xNiwyLjcsMS44LDQuMzUsMS44LDMuMjcsMCw2LjA1LTIuNzksNi4wOC02LjEtLjAzLTMuMjMtMi44MS01Ljk5LTYuMDgtNS45OVptMC02LjgzYy00LjM0LDAtNy45NS0zLjUzLTguMDUtNy44N2wtLjg5LTQwLjA5Yy0uMDUtMi40My44NS00LjcyLDIuNTUtNi40NiwxLjctMS43NCwzLjk3LTIuNjksNi40LTIuNjlzNC43Ljk2LDYuNCwyLjY5YzEuNywxLjc0LDIuNiw0LjAzLDIuNTUsNi40NmwtLjkxLDQwLjA5Yy0uMSw0LjM0LTMuNzEsNy44Ni04LjA1LDcuODZabS4wMS01My4xMWMtMS4zNCwwLTIuNi41My0zLjU0LDEuNDktLjk0Ljk2LTEuNDQsMi4yMy0xLjQxLDMuNTdsLjg5LDQwLjA5Yy4wNSwyLjE4LDEuODYsMy45Niw0LjA1LDMuOTZzNC0xLjc3LDQuMDUtMy45NmwuOTEtNDAuMDljLjAzLTEuMzQtLjQ3LTIuNjEtMS40MS0zLjU3cy0yLjItMS40OS0zLjU0LTEuNDlaIiBjbGFzcz0iY2xzLTIiLz48L3N2Zz4=;" vertex="1" parent="1">
          <mxGeometry x="489" y="30" width="192" height="192" as="geometry" />
        </mxCell>
        <mxCell id="CGAGVmt4-NLE7OsS4G-o-11" value="" style="shape=mxgraph.cisco.servers.fileserver;sketch=0;html=1;pointerEvents=1;dashed=0;fillColor=light-dark(#77767b, #5cb3dc);strokeColor=#ffffff;strokeWidth=2;verticalLabelPosition=bottom;verticalAlign=top;align=center;outlineConnect=0;" vertex="1" parent="1">
          <mxGeometry x="195.84" y="630" width="90.16" height="130" as="geometry" />
        </mxCell>
        <mxCell id="CGAGVmt4-NLE7OsS4G-o-12" value="" style="shape=mxgraph.cisco.servers.fileserver;sketch=0;html=1;pointerEvents=1;dashed=0;fillColor=light-dark(#77767b, #5cb3dc);strokeColor=#ffffff;strokeWidth=2;verticalLabelPosition=bottom;verticalAlign=top;align=center;outlineConnect=0;" vertex="1" parent="1">
          <mxGeometry x="293.92" y="630" width="90.16" height="130" as="geometry" />
        </mxCell>
        <mxCell id="CGAGVmt4-NLE7OsS4G-o-14" value="" style="shape=mxgraph.cisco.servers.fileserver;sketch=0;html=1;pointerEvents=1;dashed=0;fillColor=light-dark(#77767b, #5cb3dc);strokeColor=#ffffff;strokeWidth=2;verticalLabelPosition=bottom;verticalAlign=top;align=center;outlineConnect=0;" vertex="1" parent="1">
          <mxGeometry x="780.92" y="630" width="90.16" height="130" as="geometry" />
        </mxCell>
        <mxCell id="CGAGVmt4-NLE7OsS4G-o-15" value="" style="shape=mxgraph.cisco.servers.fileserver;sketch=0;html=1;pointerEvents=1;dashed=0;fillColor=light-dark(#77767b, #5cb3dc);strokeColor=#ffffff;strokeWidth=2;verticalLabelPosition=bottom;verticalAlign=top;align=center;outlineConnect=0;" vertex="1" parent="1">
          <mxGeometry x="882.8399999999999" y="630" width="90.16" height="130" as="geometry" />
        </mxCell>
        <mxCell id="CGAGVmt4-NLE7OsS4G-o-16" value="" style="shape=mxgraph.cisco.servers.fileserver;sketch=0;html=1;pointerEvents=1;dashed=0;fillColor=light-dark(#77767b, #5cb3dc);strokeColor=#ffffff;strokeWidth=2;verticalLabelPosition=bottom;verticalAlign=top;align=center;outlineConnect=0;" vertex="1" parent="1">
          <mxGeometry x="980.9200000000001" y="630" width="90.16" height="130" as="geometry" />
        </mxCell>
        <mxCell id="CGAGVmt4-NLE7OsS4G-o-17" value="Elasticsearch" style="text;html=1;align=center;verticalAlign=middle;whiteSpace=wrap;rounded=0;fontSize=21;fontStyle=1" vertex="1" parent="1">
          <mxGeometry x="125.5" y="210" width="143" height="30" as="geometry" />
        </mxCell>
        <mxCell id="CGAGVmt4-NLE7OsS4G-o-19" value="FortiSIEM Supervisor" style="text;html=1;align=center;verticalAlign=middle;whiteSpace=wrap;rounded=0;fontSize=21;fontStyle=1" vertex="1" parent="1">
          <mxGeometry x="670" y="96" width="143" height="60" as="geometry" />
        </mxCell>
        <mxCell id="CGAGVmt4-NLE7OsS4G-o-20" value="FortiSIEM Worker" style="text;html=1;align=center;verticalAlign=middle;whiteSpace=wrap;rounded=0;fontSize=21;fontStyle=1" vertex="1" parent="1">
          <mxGeometry x="513.5" y="452" width="143" height="58" as="geometry" />
        </mxCell>
        <mxCell id="CGAGVmt4-NLE7OsS4G-o-21" value="FortiSIEM Collector" style="text;html=1;align=center;verticalAlign=middle;whiteSpace=wrap;rounded=0;fontSize=21;fontStyle=1" vertex="1" parent="1">
          <mxGeometry x="8.08" y="383" width="143" height="61" as="geometry" />
        </mxCell>
        <mxCell id="CGAGVmt4-NLE7OsS4G-o-22" value="FortiSIEM Collector" style="text;html=1;align=center;verticalAlign=middle;whiteSpace=wrap;rounded=0;fontSize=21;fontStyle=1" vertex="1" parent="1">
          <mxGeometry x="1010" y="383" width="143" height="61" as="geometry" />
        </mxCell>
        <mxCell id="CGAGVmt4-NLE7OsS4G-o-25" value="" style="endArrow=none;html=1;rounded=0;fontColor=light-dark(#33d17a, #ededed);textShadow=1;strokeWidth=5;curved=1;strokeColor=light-dark(#000000, #ffb5b5);exitX=0;exitY=0.5;exitDx=0;exitDy=0;entryX=1;entryY=0.5;entryDx=0;entryDy=0;" edge="1" parent="1" source="CGAGVmt4-NLE7OsS4G-o-8" target="CGAGVmt4-NLE7OsS4G-o-2">
          <mxGeometry width="50" height="50" relative="1" as="geometry">
            <mxPoint x="700" y="780" as="sourcePoint" />
            <mxPoint x="320" y="460" as="targetPoint" />
          </mxGeometry>
        </mxCell>
        <mxCell id="CGAGVmt4-NLE7OsS4G-o-26" value="" style="endArrow=none;html=1;rounded=0;fontColor=light-dark(#33d17a, #ededed);textShadow=1;strokeWidth=5;curved=1;strokeColor=light-dark(#000000, #db9958);exitX=0.5;exitY=0;exitDx=0;exitDy=0;" edge="1" parent="1" source="CGAGVmt4-NLE7OsS4G-o-8" target="CGAGVmt4-NLE7OsS4G-o-9">
          <mxGeometry width="50" height="50" relative="1" as="geometry">
            <mxPoint x="499" y="376" as="sourcePoint" />
            <mxPoint x="312" y="424" as="targetPoint" />
          </mxGeometry>
        </mxCell>
        <mxCell id="CGAGVmt4-NLE7OsS4G-o-27" value="" style="endArrow=none;html=1;rounded=0;fontColor=light-dark(#33d17a, #ededed);textShadow=1;strokeWidth=5;curved=1;strokeColor=light-dark(#000000, #db9958);" edge="1" parent="1" source="CGAGVmt4-NLE7OsS4G-o-9" target="CGAGVmt4-NLE7OsS4G-o-5">
          <mxGeometry width="50" height="50" relative="1" as="geometry">
            <mxPoint x="595" y="280" as="sourcePoint" />
            <mxPoint x="595" y="232" as="targetPoint" />
          </mxGeometry>
        </mxCell>
        <mxCell id="CGAGVmt4-NLE7OsS4G-o-28" value="" style="endArrow=none;html=1;rounded=0;fontColor=light-dark(#33d17a, #ededed);textShadow=1;strokeWidth=5;curved=1;strokeColor=light-dark(#000000, #ffb5b5);exitX=1;exitY=0.5;exitDx=0;exitDy=0;entryX=0;entryY=0.5;entryDx=0;entryDy=0;" edge="1" parent="1" source="CGAGVmt4-NLE7OsS4G-o-8" target="CGAGVmt4-NLE7OsS4G-o-7">
          <mxGeometry width="50" height="50" relative="1" as="geometry">
            <mxPoint x="499" y="376" as="sourcePoint" />
            <mxPoint x="312" y="424" as="targetPoint" />
          </mxGeometry>
        </mxCell>
        <mxCell id="CGAGVmt4-NLE7OsS4G-o-29" value="Standort WIEN" style="text;html=1;align=center;verticalAlign=middle;whiteSpace=wrap;rounded=0;fontSize=21;fontStyle=1" vertex="1" parent="1">
          <mxGeometry x="159" y="770" width="160" height="30" as="geometry" />
        </mxCell>
        <mxCell id="CGAGVmt4-NLE7OsS4G-o-30" value="Standort EISENSTADT" style="text;html=1;align=center;verticalAlign=middle;whiteSpace=wrap;rounded=0;fontSize=21;fontStyle=1" vertex="1" parent="1">
          <mxGeometry x="807.04" y="770" width="237.92" height="30" as="geometry" />
        </mxCell>
        <mxCell id="CGAGVmt4-NLE7OsS4G-o-31" value="" style="endArrow=none;html=1;rounded=0;fontColor=light-dark(#33d17a, #ededed);textShadow=1;strokeWidth=5;curved=1;strokeColor=light-dark(#000000, #ffb5b5);exitX=0.5;exitY=0;exitDx=0;exitDy=0;exitPerimeter=0;" edge="1" parent="1">
          <mxGeometry width="50" height="50" relative="1" as="geometry">
            <mxPoint x="139" y="620" as="sourcePoint" />
            <mxPoint x="240" y="500" as="targetPoint" />
          </mxGeometry>
        </mxCell>
        <mxCell id="CGAGVmt4-NLE7OsS4G-o-32" value="" style="endArrow=none;html=1;rounded=0;fontColor=light-dark(#33d17a, #ededed);textShadow=1;strokeWidth=5;curved=1;strokeColor=light-dark(#000000, #ffb5b5);exitX=0.5;exitY=0;exitDx=0;exitDy=0;exitPerimeter=0;" edge="1" parent="1">
          <mxGeometry width="50" height="50" relative="1" as="geometry">
            <mxPoint x="240.91999999999985" y="620" as="sourcePoint" />
            <mxPoint x="239" y="500" as="targetPoint" />
          </mxGeometry>
        </mxCell>
        <mxCell id="CGAGVmt4-NLE7OsS4G-o-33" value="" style="endArrow=none;html=1;rounded=0;fontColor=light-dark(#33d17a, #ededed);textShadow=1;strokeWidth=5;curved=1;strokeColor=light-dark(#000000, #ffb5b5);exitX=0.5;exitY=0;exitDx=0;exitDy=0;exitPerimeter=0;entryX=0.5;entryY=1;entryDx=0;entryDy=0;" edge="1" parent="1">
          <mxGeometry width="50" height="50" relative="1" as="geometry">
            <mxPoint x="339" y="620" as="sourcePoint" />
            <mxPoint x="239" y="500" as="targetPoint" />
          </mxGeometry>
        </mxCell>
        <mxCell id="CGAGVmt4-NLE7OsS4G-o-2" value="" style="shape=image;verticalLabelPosition=bottom;labelBackgroundColor=default;verticalAlign=top;aspect=fixed;imageAspect=0;editableCssRules=.*;image=data:image/svg+xml,PHN2ZyB2aWV3Qm94PSIwIDAgMTkyIDE5MiIgeG1sbnM9Imh0dHA6Ly93d3cudzMub3JnLzIwMDAvc3ZnIiBpZD0iU2VjdXJpdHlfTmV0d29ya2luZyI+PGRlZnM+PHN0eWxlPi5jbHMtMXtmaWxsOiNmMDAwMDA7fS5jbHMtMntmaWxsOiM0NjQ2NDY7fS5jbHMtM3tmaWxsOiMyY2NjZDM7fTwvc3R5bGU+PC9kZWZzPjxsaW5lIHkyPSIxMzEuNjkiIHgyPSIxMjkuMzUiIHkxPSIxNzMuOTQiIHgxPSIxNzIuNTgiIGNsYXNzPSJjbHMtMSIvPjxwYXRoIGQ9Im0xNzIuNTgsMTc1Ljk0Yy0uNSwwLTEuMDEtLjE5LTEuNC0uNTdsLTQzLjIzLTQyLjI0Yy0uNzktLjc3LS44LTIuMDQtLjAzLTIuODMuNzctLjc5LDIuMDQtLjgsMi44My0uMDNsNDMuMjMsNDIuMjRjLjc5Ljc3LjgsMi4wNC4wMywyLjgzLS4zOS40LS45MS42LTEuNDMuNloiIGNsYXNzPSJjbHMtMiIvPjxwYXRoIGQ9Im05NS43OCwxNDcuMjJjLTcuMjQsMC0xNC4yMy0xLjUtMjAuNzgtNC40Ni02LjA2LTIuNzYtMTEuNDQtNi42MS0xNS45OC0xMS40NS04LjgxLTkuMzctMTMuNjYtMjEuNjItMTMuNjYtMzQuNSwwLTI3LjgsMjIuNjItNTAuNDIsNTAuNDItNTAuNDJzNTAuNDEsMjIuNjIsNTAuNDEsNTAuNDJjMCwxMi44Ny00Ljg1LDI1LjEzLTEzLjY1LDM0LjUtNC41Niw0Ljg1LTkuOTQsOC43MS0xNS45OSwxMS40NS02LjU1LDIuOTYtMTMuNTQsNC40Ni0yMC43Nyw0LjQ2Wm0wLTk2LjgzYy0yNS42LDAtNDYuNDIsMjAuODItNDYuNDIsNDYuNDIsMCwxMS44Niw0LjQ3LDIzLjE0LDEyLjU4LDMxLjc2LDQuMTksNC40Niw5LjE0LDguMDEsMTQuNzIsMTAuNTUsNi4wMiwyLjcyLDEyLjQ2LDQuMSwxOS4xMyw0LjFzMTMuMDktMS4zOCwxOS4xMi00LjFjNS41Ny0yLjUzLDEwLjUzLTYuMDcsMTQuNzItMTAuNTQsOC4xMS04LjYzLDEyLjU3LTE5LjkxLDEyLjU3LTMxLjc2LDAtMjUuNi0yMC44Mi00Ni40Mi00Ni40MS00Ni40MloiIGNsYXNzPSJjbHMtMiIvPjxsaW5lIHkyPSIyNS44IiB4Mj0iMjQuNzMiIHkxPSI2Mi41OSIgeDE9IjYxLjUyIiBjbGFzcz0iY2xzLTMiLz48cGF0aCBkPSJtNjEuNTIsNjQuNTljLS41MSwwLTEuMDItLjItMS40MS0uNTlMMjcuMDUsMzAuOTZjLS43OC0uNzgtLjc4LTIuMDUsMC0yLjgzLjc4LS43OCwyLjA1LS43OCwyLjgzLDBsMzMuMDUsMzMuMDVjLjc4Ljc4Ljc4LDIuMDUsMCwyLjgzLS4zOS4zOS0uOS41OS0xLjQxLjU5WiIgY2xhc3M9ImNscy0yIi8+PHBhdGggZD0ibTMyLjYsMjUuOGMtMi4xNy0yLjE3LTUuNy0yLjE3LTcuODcsMHMtMi4xNyw1LjcsMCw3Ljg3YzIuMTcsMi4xNyw1LjcsMi4xNyw3Ljg3LDAsMi4xNy0yLjE3LDIuMTctNS43LDAtNy44N1oiIGNsYXNzPSJjbHMtMiIvPjxsaW5lIHkyPSIyOS45OCIgeDI9IjE2Mi42NSIgeTE9IjYyLjU5IiB4MT0iMTMwLjAzIiBjbGFzcz0iY2xzLTMiLz48cGF0aCBkPSJtMTMwLjAzLDY0LjU5Yy0uNTEsMC0xLjAyLS4yLTEuNDEtLjU5LS43OC0uNzgtLjc4LTIuMDUsMC0yLjgzbDI4Ljg4LTI4Ljg4Yy43OC0uNzgsMi4wNS0uNzgsMi44MywwLC43OC43OC43OCwyLjA1LDAsMi44M2wtMjguODgsMjguODhjLS4zOS4zOS0uOS41OS0xLjQxLjU5WiIgY2xhc3M9ImNscy0yIi8+PHBhdGggZD0ibTE2Mi42NSwzNy44NWMyLjE3LTIuMTcsMi4xNy01LjcsMC03Ljg3LTIuMTctMi4xNy01LjctMi4xNy03Ljg3LDBzLTIuMTcsNS43LDAsNy44N2MyLjE3LDIuMTcsNS43LDIuMTcsNy44NywwWiIgY2xhc3M9ImNscy0yIi8+PGxpbmUgeTI9IjE1OC42MiIgeDI9IjI0LjQiIHkxPSIxMjUuOTIiIHgxPSI1Ny4xIiBjbGFzcz0iY2xzLTMiLz48cGF0aCBkPSJtMjguMTMsMTU2Ljg4Yy0uNTEsMC0xLjAyLS4yLTEuNDEtLjU5LS43OC0uNzgtLjc4LTIuMDUsMC0yLjgzbDI4Ljk2LTI4Ljk2Yy43OC0uNzgsMi4wNS0uNzgsMi44MywwLC43OC43OC43OCwyLjA1LDAsMi44M2wtMjguOTYsMjguOTZjLS4zOS4zOS0uOS41OS0xLjQxLjU5WiIgY2xhc3M9ImNscy0yIi8+PHBhdGggZD0ibTI0LjM5LDE1MC43NWMtMi4xNywyLjE3LTIuMTcsNS43LDAsNy44NywyLjE3LDIuMTcsNS43LDIuMTcsNy44NywwczIuMTctNS43LDAtNy44N2MtMi4xNy0yLjE3LTUuNy0yLjE3LTcuODcsMFoiIGNsYXNzPSJjbHMtMiIvPjxwYXRoIGQ9Im05NS43OCwxNjQuNTJjLTEuMSwwLTItLjktMi0ydi0xNy4zYzAtMS4xLjktMiwyLTJzMiwuOSwyLDJ2MTcuM2MwLDEuMS0uOSwyLTIsMloiIGNsYXNzPSJjbHMtMiIvPjxjaXJjbGUgcj0iNS41NiIgY3k9IjE2Mi4yNSIgY3g9Ijk1Ljc4IiBjbGFzcz0iY2xzLTIiLz48cGF0aCBkPSJtOTUuNzgsNTAuMzljLTEuMSwwLTItLjktMi0ydi0yNy4xMWMwLTEuMS45LTIsMi0yczIsLjksMiwydjI3LjExYzAsMS4xLS45LDItMiwyWiIgY2xhc3M9ImNscy0yIi8+PHBhdGggZD0ibTEwMS4zNCwyMS41NmMwLTMuMDctMi40OS01LjU2LTUuNTYtNS41NnMtNS41NiwyLjQ5LTUuNTYsNS41NiwyLjQ5LDUuNTYsNS41Niw1LjU2LDUuNTYtMi40OSw1LjU2LTUuNTZaIiBjbGFzcz0iY2xzLTIiLz48cGF0aCBkPSJtNDcuMzYsOTRoLTI2LjA3Yy0xLjEsMC0yLS45LTItMnMuOS0yLDItMmgyNi4wN2MxLjEsMCwyLC45LDIsMnMtLjksMi0yLDJaIiBjbGFzcz0iY2xzLTIiLz48Y2lyY2xlIHI9IjUuNTYiIGN5PSI5MiIgY3g9IjIxLjU2IiBjbGFzcz0iY2xzLTIiLz48cGF0aCBkPSJtMTc4LjcyLDEwNy44NmgtMzUuMzhjLTEuMSwwLTItLjktMi0ycy45LTIsMi0yaDM1LjM4YzEuMSwwLDIsLjksMiwycy0uOSwyLTIsMloiIGNsYXNzPSJjbHMtMiIvPjxjaXJjbGUgcj0iNS41NiIgY3k9IjEwNS44NiIgY3g9IjE3OC40NSIgY2xhc3M9ImNscy0yIi8+PHBhdGggZD0ibTg3LjY5LDEyNS44N2MtLjA0LTQuNDEsMy42LTguMDEsOC4wOC04LjAxczguMDQsMy42LDguMDgsOC4wMWMtLjA0LDQuNDgtMy43NSw4LjA4LTguMDgsOC4wOHMtOC4xMi0zLjYtOC4wOC04LjA4Wm04LjA4LTE0Ljg0aDBjLTMuMjksMC01Ljk3LTIuNjMtNi4wNS01LjkxbC0uODktNDAuMDljLS4wOS0zLjksMy4wNS03LjEsNi45NS03LjFoMGMzLjksMCw3LjA0LDMuMjEsNi45NSw3LjExbC0uOTEsNDAuMDljLS4wNywzLjI5LTIuNzYsNS45MS02LjA1LDUuOTFaIiBjbGFzcz0iY2xzLTMiLz48cGF0aCBkPSJtOTUuNzgsMTM1Ljk1Yy0yLjczLDAtNS4yOC0xLjA2LTcuMTktMi45OC0xLjg4LTEuOS0yLjkxLTQuNDItMi44OS03LjEtLjAyLTIuNjQsMS01LjEzLDIuODgtNy4wMSwxLjkxLTEuOTMsNC40Ny0yLjk5LDcuMjEtMi45OSw1LjUxLDAsMTAuMDMsNC40OCwxMC4wOCw5Ljk5LS4wNSw1LjU4LTQuNTcsMTAuMS0xMC4wOCwxMC4xWm0wLTE2LjA5Yy0xLjY2LDAtMy4yMS42NC00LjM3LDEuODEtMS4xMiwxLjEzLTEuNzMsMi42MS0xLjcyLDQuMTh2LjAzYy0uMDEsMS42MS42LDMuMTIsMS43Myw0LjI2LDEuMTUsMS4xNiwyLjcsMS44LDQuMzUsMS44LDMuMjcsMCw2LjA1LTIuNzksNi4wOC02LjEtLjAzLTMuMjMtMi44MS01Ljk5LTYuMDgtNS45OVptMC02LjgzYy00LjM0LDAtNy45NS0zLjUzLTguMDUtNy44N2wtLjg5LTQwLjA5Yy0uMDUtMi40My44NS00LjcyLDIuNTUtNi40NiwxLjctMS43NCwzLjk3LTIuNjksNi40LTIuNjlzNC43Ljk2LDYuNCwyLjY5YzEuNywxLjc0LDIuNiw0LjAzLDIuNTUsNi40NmwtLjkxLDQwLjA5Yy0uMSw0LjM0LTMuNzEsNy44Ni04LjA1LDcuODZabS4wMS01My4xMWMtMS4zNCwwLTIuNi41My0zLjU0LDEuNDktLjk0Ljk2LTEuNDQsMi4yMy0xLjQxLDMuNTdsLjg5LDQwLjA5Yy4wNSwyLjE4LDEuODYsMy45Niw0LjA1LDMuOTZzNC0xLjc3LDQuMDUtMy45NmwuOTEtNDAuMDljLjAzLTEuMzQtLjQ3LTIuNjEtMS40MS0zLjU3cy0yLjItMS40OS0zLjU0LTEuNDlaIiBjbGFzcz0iY2xzLTIiLz48L3N2Zz4=;" vertex="1" parent="1">
          <mxGeometry x="143" y="318" width="192" height="192" as="geometry" />
        </mxCell>
        <mxCell id="CGAGVmt4-NLE7OsS4G-o-34" value="" style="endArrow=none;html=1;rounded=0;fontColor=light-dark(#33d17a, #ededed);textShadow=1;strokeWidth=5;curved=1;strokeColor=light-dark(#000000, #ffb5b5);exitX=0.5;exitY=0;exitDx=0;exitDy=0;exitPerimeter=0;entryX=0.5;entryY=1;entryDx=0;entryDy=0;" edge="1" parent="1">
          <mxGeometry width="50" height="50" relative="1" as="geometry">
            <mxPoint x="826" y="620" as="sourcePoint" />
            <mxPoint x="926" y="500" as="targetPoint" />
          </mxGeometry>
        </mxCell>
        <mxCell id="CGAGVmt4-NLE7OsS4G-o-35" value="" style="endArrow=none;html=1;rounded=0;fontColor=light-dark(#33d17a, #ededed);textShadow=1;strokeWidth=5;curved=1;strokeColor=light-dark(#000000, #ffb5b5);entryX=0.5;entryY=1;entryDx=0;entryDy=0;" edge="1" parent="1">
          <mxGeometry width="50" height="50" relative="1" as="geometry">
            <mxPoint x="927.2454054054056" y="620" as="sourcePoint" />
            <mxPoint x="926" y="500" as="targetPoint" />
          </mxGeometry>
        </mxCell>
        <mxCell id="CGAGVmt4-NLE7OsS4G-o-36" value="" style="endArrow=none;html=1;rounded=0;fontColor=light-dark(#33d17a, #ededed);textShadow=1;strokeWidth=5;curved=1;strokeColor=light-dark(#000000, #ffb5b5);exitX=0.5;exitY=0;exitDx=0;exitDy=0;exitPerimeter=0;entryX=0.5;entryY=1;entryDx=0;entryDy=0;" edge="1" parent="1">
          <mxGeometry width="50" height="50" relative="1" as="geometry">
            <mxPoint x="1026" y="620" as="sourcePoint" />
            <mxPoint x="926" y="500" as="targetPoint" />
          </mxGeometry>
        </mxCell>
      </root>
    </mxGraphModel>
  </diagram>
</mxfile>
